HIERARCHY
ROOT Hips
{
	OFFSET -21.947001 39.810204 44.525997
	CHANNELS 6 Xposition Yposition Zposition Zrotation Xrotation Yrotation
	JOINT Chest
	{
		OFFSET -0.201599 0.334099 6.453201
		CHANNELS 6 Xposition Yposition Zposition Zrotation Xrotation Yrotation
		JOINT Chest2
		{
			OFFSET 0.000000 0.000000 3.568001
			CHANNELS 6 Xposition Yposition Zposition Zrotation Xrotation Yrotation
			JOINT Neck
			{
				OFFSET 0.000000 0.000000 8.296402
				CHANNELS 6 Xposition Yposition Zposition Zrotation Xrotation Yrotation
				JOINT Head
				{
					OFFSET 0.000000 0.000000 2.173901
					CHANNELS 6 Xposition Yposition Zposition Zrotation Xrotation Yrotation
					End Site
					{
						OFFSET 0.000000 0.000000 7.891998
					}
				}
			}
			JOINT LeftCollar
			{
				OFFSET 1.927601 0.221401 6.049000
				CHANNELS 6 Xposition Yposition Zposition Zrotation Xrotation Yrotation
				JOINT LeftShoulder
				{
					OFFSET 4.959700 0.000000 0.000000
					CHANNELS 6 Xposition Yposition Zposition Zrotation Xrotation Yrotation
					JOINT LeftElbow
					{
						OFFSET 0.000000 0.000000 -8.654202
						CHANNELS 6 Xposition Yposition Zposition Zrotation Xrotation Yrotation
						JOINT LeftWrist
						{
							OFFSET 0.000000 0.000000 -13.864101
							CHANNELS 6 Xposition Yposition Zposition Zrotation Xrotation Yrotation
							End Site
							{
								OFFSET 0.000000 0.000000 -2.173901
							}
						}
					}
				}
			}
			JOINT RightCollar
			{
				OFFSET -3.155701 -0.764999 6.687801
				CHANNELS 6 Xposition Yposition Zposition Zrotation Xrotation Yrotation
				JOINT RightShoulder
				{
					OFFSET -3.592899 0.000000 0.000000
					CHANNELS 6 Xposition Yposition Zposition Zrotation Xrotation Yrotation
					JOINT RightElbow
					{
						OFFSET 0.000000 0.000000 -10.352398
						CHANNELS 6 Xposition Yposition Zposition Zrotation Xrotation Yrotation
						JOINT RightWrist
						{
							OFFSET 0.000000 0.000000 -12.750301
							CHANNELS 6 Xposition Yposition Zposition Zrotation Xrotation Yrotation
							End Site
							{
								OFFSET 0.000000 0.000000 -2.173901
							}
						}
					}
				}
			}
		}
	}
	JOINT LeftHip
	{
		OFFSET 2.460600 -0.518101 -2.735500
		CHANNELS 6 Xposition Yposition Zposition Zrotation Xrotation Yrotation
		JOINT LeftKnee
		{
			OFFSET 0.000000 -0.000004 -17.005899
			CHANNELS 6 Xposition Yposition Zposition Zrotation Xrotation Yrotation
			JOINT LeftAnkle
			{
				OFFSET 0.000000 0.000000 -19.194401
				CHANNELS 6 Xposition Yposition Zposition Zrotation Xrotation Yrotation
				End Site
				{
					OFFSET 0.000000 -8.134600 0.000000
				}
			}
		}
	}
	JOINT RightHip
	{
		OFFSET -3.115499 -0.679600 -2.320301
		CHANNELS 6 Xposition Yposition Zposition Zrotation Xrotation Yrotation
		JOINT RightKnee
		{
			OFFSET 0.000000 -0.000004 -17.680401
			CHANNELS 6 Xposition Yposition Zposition Zrotation Xrotation Yrotation
			JOINT RightAnkle
			{
				OFFSET 0.000000 0.000000 -16.993797
				CHANNELS 6 Xposition Yposition Zposition Zrotation Xrotation Yrotation
				End Site
				{
					OFFSET 0.000000 -8.842300 0.000000
				}
			}
		}
	}
}
MOTION
Frames: 6
Frame Time: 0.041667
-17.721203 28.414005 45.041695 1361.350139 4.393184 -3.961459 -0.201604 0.334094 6.453201 11.941949 5.217860 -4.434462 -0.000001 0.000000 3.568005 0.176929 -5.384156 -0.641886 0.000008 0.000000 8.296397 42.198425 -5.132725 -1.859329 -0.000003 -0.000001 2.173908 6.768159 -5.849905 9.580878 1.927605 0.221401 6.048997 -12.277840 2.744903 -6.450105 4.959704 0.000002 -0.000001 32.292714 -0.460553 -111.595251 0.000006 0.000001 -8.654196 4.401983 -8.187437 2.377808 0.000003 0.000000 -13.864100 695.194521 -174.137667 192.888012 -3.155699 -0.765000 6.687800 35.569911 7.034956 2.127907 -3.592902 0.000010 0.000005 -39.014553 36.882318 85.726005 -0.000010 -0.000010 -10.352396 -154.268305 -166.333042 -175.309140 -0.000004 -0.000006 -12.750305 -743.907157 -1.592971 -35.112636 2.460596 -0.518105 -2.735502 7.210069 -10.379740 5.055375 -0.000006 0.000000 -17.005903 -25.458605 20.036543 6.088930 -0.000004 0.000005 -19.194399 0.853171 27.827505 -9.502089 -3.115498 -0.679595 -2.320299 4.518493 -7.610052 8.784262 -0.000002 -0.000005 -17.680405 -283.562789 20.699163 -31.236931 0.000002 -0.000007 -16.993792 286.628178 14.489490 -51.313589
-17.934099 28.943401 45.082493 1364.993963 4.512939 -3.545669 -0.201600 0.334098 6.453204 12.916712 4.522489 -3.794772 0.000002 -0.000001 3.568001 0.181499 -5.129126 -0.602492 -0.000001 -0.000002 8.296395 38.745297 -4.766316 -3.285059 -0.000000 0.000002 2.173905 6.286833 -6.284459 8.761164 1.927601 0.221403 6.048998 -12.848165 3.483571 -6.916477 4.959702 0.000004 -0.000007 33.226333 -0.689981 -111.677507 0.000006 0.000001 -8.654200 -1.058355 -8.644504 2.560514 -0.000003 0.000000 -13.864101 695.488056 -174.611286 193.241870 -3.155704 -0.764997 6.687801 36.140266 7.761794 2.185862 -3.592895 0.000001 -0.000004 -39.324657 31.763812 89.764402 -0.000007 -0.000002 -10.352402 -159.392764 -169.151096 -176.547850 0.000007 -0.000000 -12.750298 -740.118206 -1.838050 -35.269618 2.460599 -0.518103 -2.735501 7.704317 -10.941547 4.776217 -0.000002 -0.000006 -17.005905 -26.658877 20.736927 5.474567 -0.000002 0.000003 -19.194401 -0.990611 27.904970 -8.668221 -3.115499 -0.679594 -2.320294 5.976275 -5.811242 8.563999 -0.000001 0.000001 -17.680395 -289.771595 20.668557 -28.800271 0.000008 -0.000003 -16.993793 289.199225 13.322181 -52.317798
-17.988998 29.083801 45.090992 1365.791838 4.565522 -3.438114 -0.201595 0.334097 6.453206 13.220642 4.342050 -3.628991 0.000000 0.000005 3.567996 0.186017 -5.054622 -0.590945 0.000006 -0.000000 8.296404 37.787554 -4.681657 -3.549358 0.000002 0.000001 2.173906 6.194205 -6.357731 8.513737 1.927601 0.221403 6.049006 -13.011716 3.683232 -7.031665 4.959704 -0.000002 0.000008 33.472517 -0.885506 -111.686126 -0.000002 0.000001 -8.654194 -2.310608 -8.612216 2.523566 -0.000010 0.000001 -13.864096 694.775421 -174.540157 193.484752 -3.155705 -0.765002 6.687801 36.301007 7.991201 2.200046 -3.592900 0.000000 0.000006 -39.238443 30.153666 90.759485 -0.000000 -0.000002 -10.352400 -160.677632 -169.827818 -176.826986 0.000006 0.000001 -12.750305 -739.009912 -1.900642 -35.073196 2.460600 -0.518103 -2.735495 7.851294 -11.156007 4.700270 -0.000006 -0.000002 -17.005894 -26.936279 21.000781 5.322240 -0.000004 0.000002 -19.194401 -1.463611 27.879669 -8.285253 -3.115496 -0.679596 -2.320291 6.305488 -5.397044 8.455096 -0.000006 -0.000002 -17.680397 -291.193504 20.491321 -28.318197 0.000005 -0.000002 -16.993793 289.577208 13.186000 -52.431049
-18.052299 29.246704 45.100590 1366.675828 4.636143 -3.315935 -0.201607 0.334099 6.453207 13.594212 4.138635 -3.451601 0.000002 0.000006 3.567994 0.190699 -4.970913 -0.578238 0.000008 -0.000001 8.296391 36.650573 -4.561754 -3.787995 -0.000001 -0.000000 2.173897 6.050690 -6.506205 8.144300 1.927607 0.221405 6.048994 -13.175275 3.872113 -7.120676 4.959699 -0.000005 0.000010 33.701711 -1.119879 -111.732715 -0.000002 0.000000 -8.654200 -3.539661 -8.593909 2.496470 0.000001 0.000003 -13.864100 693.850887 -174.408471 193.767453 -3.155704 -0.764997 6.687802 36.534542 8.286479 2.293551 -3.592890 -0.000002 0.000014 -39.086099 28.461866 91.804941 -0.000000 0.000000 -10.352402 -162.345619 -170.598263 -177.121750 -0.000002 0.000002 -12.750297 -737.765069 -1.973263 -34.813423 2.460595 -0.518104 -2.735500 8.150558 -11.446527 4.620213 -0.000004 -0.000001 -17.005901 -27.152809 21.358459 5.170210 -0.000008 0.000002 -19.194397 -2.153752 27.861672 -7.845107 -3.115503 -0.679600 -2.320294 6.739106 -4.936570 8.287204 0.000000 0.000000 -17.680397 -292.868075 20.295883 -27.724597 0.000005 -0.000002 -16.993792 289.970982 13.208395 -52.275662
-18.124197 29.430904 45.111195 1367.642983 4.713441 -3.187115 -0.201599 0.334102 6.453199 14.027632 3.927737 -3.254347 0.000000 0.000005 3.567991 0.196822 -4.889117 -0.565504 0.000004 -0.000001 8.296393 35.361737 -4.403855 -4.030191 -0.000003 -0.000000 2.173906 5.853958 -6.663658 7.733316 1.927599 0.221403 6.048994 -13.345240 4.057877 -7.177954 4.959702 -0.000000 0.000003 33.808842 -1.429316 -111.856068 -0.000003 0.000004 -8.654196 -4.185559 -8.351807 2.479779 0.000002 -0.000000 -13.864099 692.506050 -174.181121 194.008245 -3.155712 -0.765001 6.687801 36.831133 8.641770 2.386214 -3.592900 0.000009 0.000010 -38.885295 26.479312 92.978607 -0.000002 -0.000002 -10.352404 -164.273590 -171.443841 -177.435255 0.000005 -0.000002 -12.750298 -736.323025 -2.021975 -35.156459 2.460601 -0.518097 -2.735511 8.320227 -11.730979 4.521965 -0.000004 0.000000 -17.005899 -27.344391 21.683662 4.980524 -0.000003 0.000005 -19.194403 -2.769573 27.854831 -7.366484 -3.115499 -0.679586 -2.320305 6.977425 -4.523603 8.057070 -0.000004 -0.000002 -17.680393 -294.447980 20.087329 -27.104590 0.000001 -0.000004 -16.993790 290.348773 13.396710 -51.823207
-18.204901 29.636003 45.123199 1368.689368 4.799253 -3.045444 -0.201600 0.334098 6.453199 14.488834 3.705459 -3.041808 0.000001 0.000001 3.567989 0.214194 -4.810130 -0.552131 0.000001 0.000003 8.296392 33.920099 -4.192496 -4.285331 -0.000001 -0.000000 2.173892 5.633450 -6.840604 7.280976 1.927599 0.221408 6.048993 -13.513119 4.233827 -7.244654 4.959700 0.000005 0.000010 33.992400 -1.792676 -112.067804 -0.000004 0.000001 -8.654202 -4.872476 -8.235820 2.546422 -0.000005 -0.000004 -13.864097 691.236509 -173.889581 194.148195 -3.155707 -0.764995 6.687795 37.431397 9.105505 2.059438 -3.592904 0.000001 0.000002 -38.929633 23.980753 94.559495 0.000002 -0.000000 -10.352404 -166.656397 -172.362911 -177.769429 0.000004 -0.000006 -12.750302 -734.605970 -2.028038 -34.591346 2.460598 -0.518097 -2.735499 8.514066 -12.044047 4.408920 -0.000005 0.000001 -17.005901 -27.517372 22.023361 4.770496 -0.000002 0.000003 -19.194397 -3.448540 27.870626 -6.870302 -3.115497 -0.679595 -2.320299 7.426165 -4.061147 7.817281 -0.000005 -0.000003 -17.680393 -296.359067 19.815936 -26.417005 0.000006 0.000000 -16.993793 290.724106 13.731315 -51.172337
